<mxfile host="app.diagrams.net" modified="2023-11-13T09:39:56.237Z" agent="Mozilla/5.0 (Windows NT 10.0; Win64; x64) AppleWebKit/537.36 (KHTML, like Gecko) Chrome/119.0.0.0 Safari/537.36" version="22.1.0" etag="LIiMdEHeVua3vhmOei6C" type="github">
  <diagram name="Page-1" id="KEy3dhTGQx24d2qpYW4J">
    <mxGraphModel>
      <root>
        <mxCell id="0" />
        <mxCell id="1" parent="0" />
      </root>
    </mxGraphModel>
  </diagram>
</mxfile>
